<svg xmlns="http://www.w3.org/2000/svg" width="40" height="40" viewBox="0 0 40 40" fill="none">
  <path fill-rule="evenodd" clip-rule="evenodd" d="M30.4134 10.5611L33.0852 15.0882C34.5025 17.4891 36.0874 20.1727 36.7666 21.3182C37.1254 21.9047 37.2958 22.5871 37.2547 23.2735C37.0223 27.4919 33.6089 30.8359 29.3862 30.9813C29.3579 30.9823 29.3296 30.9823 29.3013 30.9813C25.0769 30.8397 21.6602 27.4958 21.4271 23.2762C21.3829 22.5862 21.5515 21.8993 21.9102 21.3083L28.2606 10.5605C28.4856 10.1797 28.895 9.94619 29.3372 9.94633C29.7794 9.94647 30.1887 10.1803 30.4134 10.5611ZM29.3361 13.6547L24.0489 22.603C23.9545 22.7576 23.9101 22.9377 23.9221 23.1185L23.9231 23.1334C24.0817 26.0484 26.4304 28.362 29.3427 28.4812C32.2532 28.3595 34.5996 26.0466 34.7586 23.1332L34.7591 23.1251C34.7699 22.9478 34.7257 22.7715 34.6324 22.6204L34.6209 22.6016C33.943 21.4583 32.3526 18.7651 30.9323 16.3591L29.3361 13.6547Z" fill="#FBAB34"/>
  <path fill-rule="evenodd" clip-rule="evenodd" d="M21.4825 22.5339C21.4825 21.8435 22.0421 21.2839 22.7325 21.2839H35.9428C36.6331 21.2839 37.1928 21.8435 37.1928 22.5339C37.1928 23.2242 36.6331 23.7839 35.9428 23.7839H22.7325C22.0421 23.7839 21.4825 23.2242 21.4825 22.5339Z" fill="#FBAB34"/>
  <path fill-rule="evenodd" clip-rule="evenodd" d="M10.6685 15.4158C11.1108 15.4159 11.5201 15.6497 11.7448 16.0306L18.0938 26.7915C18.4502 27.3801 18.6175 28.0638 18.5732 28.7504C18.3418 32.9681 14.9283 36.3119 10.7059 36.4556C10.6779 36.4566 10.6499 36.4566 10.6219 36.4556C6.39574 36.3151 2.97709 32.9694 2.74533 28.7473L2.74564 28.7527C2.70457 28.0589 2.87896 27.3695 3.24469 26.7789L9.59189 16.0302C9.81678 15.6494 10.2262 15.4157 10.6685 15.4158ZM10.6678 19.1249L5.38993 28.0627L5.37272 28.091C5.27652 28.2445 5.23057 28.4241 5.24127 28.6049L5.24159 28.6103C5.40157 31.5249 7.75097 33.8373 10.663 33.9555C13.5735 33.8351 15.92 31.5217 16.0772 28.6083L16.0781 28.5918C16.0901 28.4138 16.0467 28.2364 15.9539 28.084L15.9446 28.0688L10.6678 19.1249Z" fill="#FBAB34"/>
  <path fill-rule="evenodd" clip-rule="evenodd" d="M2.80748 28.0033C2.80748 27.313 3.36712 26.7533 4.05748 26.7533H17.2678C17.9581 26.7533 18.5178 27.313 18.5178 28.0033C18.5178 28.6937 17.9581 29.2533 17.2678 29.2533H4.05748C3.36712 29.2533 2.80748 28.6937 2.80748 28.0033Z" fill="#FBAB34"/>
  <path fill-rule="evenodd" clip-rule="evenodd" d="M30.5364 10.845C30.7305 11.5075 30.3507 12.2019 29.6882 12.3959L11.0148 17.8654C10.3523 18.0595 9.65789 17.6797 9.46383 17.0172C9.26978 16.3547 9.64954 15.6603 10.3121 15.4662L28.9854 9.99673C29.648 9.80267 30.3424 10.1824 30.5364 10.845Z" fill="#FBAB34"/>
  <path fill-rule="evenodd" clip-rule="evenodd" d="M18.6668 6.745C19.3571 6.745 19.9168 7.30464 19.9168 7.995V14.3224C19.9168 15.0128 19.3571 15.5724 18.6668 15.5724C17.9764 15.5724 17.4168 15.0128 17.4168 14.3224V7.995C17.4168 7.30464 17.9764 6.745 18.6668 6.745Z" fill="#FBAB34"/>
</svg>