<svg xmlns="http://www.w3.org/2000/svg" width="60" height="61" viewBox="0 0 60 61" fill="none">
  <path d="M24.3843 36.7518C25.2416 37.5691 25.2416 38.8944 24.3843 39.7117L21.397 42.5601L24.3843 45.4085C25.2416 46.2259 25.2416 47.5511 24.3843 48.3685C23.5271 49.1859 22.1372 49.1859 21.2799 48.3685L18.2926 45.5201L15.3053 48.3685C14.448 49.1859 13.0582 49.1859 12.2009 48.3685C11.3437 47.5511 11.3437 46.2259 12.2009 45.4085L15.1882 42.5601L12.2009 39.7117C11.3437 38.8944 11.3437 37.5691 12.2009 36.7518C13.0582 35.9344 14.448 35.9344 15.3053 36.7518L18.2926 39.6001L21.2799 36.7518C22.1372 35.9344 23.5271 35.9344 24.3843 36.7518Z" fill="#E0DEEA"/>
  <path fill-rule="evenodd" clip-rule="evenodd" d="M48.2927 7.68233V14.936H49.0244C55.0865 14.936 60 19.6209 60 25.4011V46.7471C60 52.5077 55.066 57.2122 49.0244 57.2122H28.2217C25.3623 58.9776 21.9532 60.0027 18.2927 60.0027C8.19157 60.0027 0 52.1922 0 42.5609C0 37.5094 2.25333 32.9589 5.85366 29.7733V19.0935C5.85366 14.74 8.6814 10.8405 12.9509 9.30211L37.3992 0.500052C42.664 -1.39057 48.2927 2.31354 48.2927 7.68233ZM14.5028 13.2179L38.9483 4.41685C41.3458 3.55636 43.9024 5.24295 43.9024 7.68233V14.936H13.9024C13.1109 14.936 12.3462 15.0448 11.6238 15.2476C12.3528 14.35 13.3385 13.6375 14.5028 13.2179ZM10.2439 26.8944C12.6729 25.7575 15.4047 25.119 18.2927 25.119C28.397 25.119 36.5854 32.9298 36.5854 42.5609C36.5854 46.4871 35.2245 50.1108 32.9278 53.0262H49.0244C52.6413 53.0262 55.6098 50.1958 55.6098 46.7471V25.4011C55.6098 21.9328 52.6618 19.122 49.0244 19.122H46.1987C46.1652 19.1235 46.1315 19.1242 46.0976 19.1242C46.0636 19.1242 46.0299 19.1235 45.9964 19.122H13.9024C11.8806 19.122 10.2439 20.6826 10.2439 22.6104V26.8944ZM26.3493 53.3651C29.8877 50.9619 32.1951 47.0178 32.1951 42.5609C32.1951 35.2412 25.9718 29.3051 18.2927 29.3051C10.6162 29.3051 4.39024 35.2415 4.39024 42.5609C4.39024 49.8803 10.6162 55.8167 18.2927 55.8167C21.2404 55.8167 23.9736 54.942 26.2226 53.4501C26.2637 53.4204 26.306 53.3921 26.3493 53.3651Z" fill="#E0DEEA"/>
</svg>